<svg width="32" height="45" viewBox="0 0 32 45" fill="none" xmlns="http://www.w3.org/2000/svg">
<path d="M12.7041 21.2851C14.0781 20.5618 15.6605 20.2089 17.3477 20.5429C19.0075 20.8716 20.4948 21.8109 21.8115 23.1708C24.3752 25.8188 26.7103 30.4923 28.8877 37.5341C29.0868 38.1782 29.0175 38.8756 28.6953 39.4677C28.373 40.0599 27.8248 40.4961 27.1758 40.6786C22.9635 41.8633 19.5203 42.4999 15.9414 42.4999C12.5945 42.4999 9.25424 41.943 5.18457 40.9033L4.36035 40.6894C3.70217 40.5152 3.14353 40.0798 2.81348 39.4843C2.48347 38.8889 2.41029 38.1845 2.61133 37.5341C3.54279 34.5217 4.85925 31.1644 6.47754 28.2568C8.04281 25.4444 10.107 22.6524 12.7041 21.2851Z" stroke="#838383" stroke-width="5" stroke-linejoin="round"/>
<path d="M15.7497 2.5C21.5639 2.50006 26.9517 6.30539 26.9518 12.7803L26.9421 12.998L26.9138 13.2139C25.9687 18.5841 22.241 23.8798 15.7497 23.8799C9.46112 23.8799 5.76627 18.9098 4.68231 13.7168L4.58563 13.2139C4.56046 13.0708 4.54755 12.9255 4.54755 12.7803C4.54774 6.30534 9.93542 2.5 15.7497 2.5Z" fill="#D9D9D9" stroke="#838383" stroke-width="5" stroke-linejoin="round"/>
</svg>
