<svg width="98" height="28" viewBox="0 0 98 28" fill="none" xmlns="http://www.w3.org/2000/svg">
<path d="M0.920455 27V24.0852H1.6875C2.77841 24.0852 3.62642 23.7358 4.23153 23.0369C4.83665 22.3381 5.27131 21.2088 5.53551 19.6491C5.80824 18.0895 5.99148 16.0227 6.08523 13.4489L6.54545 0.818181H22.5V27H19.3295V3.63068H9.5625L9.15341 14.0625C9.05114 16.8068 8.79972 19.142 8.39915 21.0682C7.99858 22.9943 7.29545 24.4645 6.28977 25.4787C5.28409 26.4929 3.81818 27 1.89205 27H0.920455ZM50.9254 13.9091C50.9254 16.6705 50.4268 19.0568 49.4297 21.0682C48.4325 23.0795 47.0646 24.6307 45.326 25.7216C43.5874 26.8125 41.6016 27.358 39.3686 27.358C37.1357 27.358 35.1499 26.8125 33.4112 25.7216C31.6726 24.6307 30.3047 23.0795 29.3075 21.0682C28.3104 19.0568 27.8118 16.6705 27.8118 13.9091C27.8118 11.1477 28.3104 8.76136 29.3075 6.75C30.3047 4.73864 31.6726 3.1875 33.4112 2.09659C35.1499 1.00568 37.1357 0.460226 39.3686 0.460226C41.6016 0.460226 43.5874 1.00568 45.326 2.09659C47.0646 3.1875 48.4325 4.73864 49.4297 6.75C50.4268 8.76136 50.9254 11.1477 50.9254 13.9091ZM47.8572 13.9091C47.8572 11.642 47.478 9.72869 46.7195 8.16903C45.9695 6.60938 44.951 5.42898 43.6641 4.62784C42.3857 3.8267 40.9538 3.42614 39.3686 3.42614C37.7834 3.42614 36.3473 3.8267 35.0604 4.62784C33.782 5.42898 32.7635 6.60938 32.005 8.16903C31.255 9.72869 30.88 11.642 30.88 13.9091C30.88 16.1761 31.255 18.0895 32.005 19.6491C32.7635 21.2088 33.782 22.3892 35.0604 23.1903C36.3473 23.9915 37.7834 24.392 39.3686 24.392C40.9538 24.392 42.3857 23.9915 43.6641 23.1903C44.951 22.3892 45.9695 21.2088 46.7195 19.6491C47.478 18.0895 47.8572 16.1761 47.8572 13.9091ZM72.0575 0.818181V3.63068H59.4268V27H56.2564V0.818181H72.0575ZM97.9645 13.9091C97.9645 16.6705 97.4659 19.0568 96.4688 21.0682C95.4716 23.0795 94.1037 24.6307 92.3651 25.7216C90.6264 26.8125 88.6406 27.358 86.4077 27.358C84.1747 27.358 82.1889 26.8125 80.4503 25.7216C78.7116 24.6307 77.3438 23.0795 76.3466 21.0682C75.3494 19.0568 74.8509 16.6705 74.8509 13.9091C74.8509 11.1477 75.3494 8.76136 76.3466 6.75C77.3438 4.73864 78.7116 3.1875 80.4503 2.09659C82.1889 1.00568 84.1747 0.460226 86.4077 0.460226C88.6406 0.460226 90.6264 1.00568 92.3651 2.09659C94.1037 3.1875 95.4716 4.73864 96.4688 6.75C97.4659 8.76136 97.9645 11.1477 97.9645 13.9091ZM94.8963 13.9091C94.8963 11.642 94.517 9.72869 93.7585 8.16903C93.0085 6.60938 91.9901 5.42898 90.7031 4.62784C89.4247 3.8267 87.9929 3.42614 86.4077 3.42614C84.8224 3.42614 83.3864 3.8267 82.0994 4.62784C80.821 5.42898 79.8026 6.60938 79.044 8.16903C78.294 9.72869 77.919 11.642 77.919 13.9091C77.919 16.1761 78.294 18.0895 79.044 19.6491C79.8026 21.2088 80.821 22.3892 82.0994 23.1903C83.3864 23.9915 84.8224 24.392 86.4077 24.392C87.9929 24.392 89.4247 23.9915 90.7031 23.1903C91.9901 22.3892 93.0085 21.2088 93.7585 19.6491C94.517 18.0895 94.8963 16.1761 94.8963 13.9091Z" fill="black"/>
</svg>
